<?xml version="1.0" standalone="no"?>
<!DOCTYPE svg PUBLIC "-//W3C//DTD SVG 1.1//EN" "http://www.w3.org/Graphics/SVG/1.1/DTD/svg11.dtd">
<svg xmlns="http://www.w3.org/2000/svg" width="181" height="210" viewBox="0 0 181 210" fill="none">
<path d="M79 141.5C80.933 141.5 82.5 143.067 82.5 145C82.5 146.933 80.933 148.5 79 148.5C77.067 148.5 75.5 146.933 75.5 145C75.5 143.067 77.067 141.5 79 141.5Z" fill="#2365FF"/>
<path fill-rule="evenodd" clip-rule="evenodd" d="M89 43H157V50.5H92C90.067 50.5 88.5 52.067 88.5 54C88.5 55.933 90.067 57.5 92 57.5H119.5C121.157 57.5 122.5 58.8431 122.5 60.5V65C122.5 68.0376 124.962 70.5 128 70.5H157V77.5H117.5V70C117.5 66.9624 115.038 64.5 112 64.5H92C90.067 64.5 88.5 66.067 88.5 68C88.5 69.933 90.067 71.5 92 71.5H110.5V79C110.5 82.0376 112.962 84.5 116 84.5H157V92.5H95.5C94.3954 92.5 93.5 91.6046 93.5 90.5V88.5C93.5 87.3954 94.3954 86.5 95.5 86.5H100C101.933 86.5 103.5 84.933 103.5 83C103.5 81.067 101.933 79.5 100 79.5H92C88.9624 79.5 86.5 81.9624 86.5 85V94C86.5 97.0376 88.9624 99.5 92 99.5H157V108C155.954 120.452 152.286 132.234 146.5 142.737V110C146.5 108.067 144.933 106.5 143 106.5C141.067 106.5 139.5 108.067 139.5 110V153.486C137.336 156.329 134.998 159.038 132.5 161.597V110C132.5 108.067 130.933 106.5 129 106.5C127.067 106.5 125.5 108.067 125.5 110V168.026C123.261 169.868 120.926 171.602 118.5 173.22V143C118.5 141.067 116.933 139.5 115 139.5C113.067 139.5 111.5 141.067 111.5 143V177.426C109.071 178.734 106.569 179.933 104 181.015V134.5C104 133.395 104.895 132.5 106 132.5H116.5C117.605 132.5 118.5 131.605 118.5 130.5V110C118.5 108.067 116.933 106.5 115 106.5C113.067 106.5 111.5 108.067 111.5 110V123.5C111.5 124.605 110.605 125.5 109.5 125.5H106C104.895 125.5 104 124.605 104 123.5V110C104 108.067 102.433 106.5 100.5 106.5C98.567 106.5 97 108.067 97 110V183.615C96.2412 183.861 95.4777 184.098 94.709 184.323L89 186V181.25C89 179.179 87.3211 177.5 85.25 177.5H71.75C70.9662 177.5 70.2384 177.74 69.6367 178.151C65.0477 175.639 60.7224 172.739 56.6973 169.5H86C87.933 169.5 89.5 167.933 89.5 166C89.5 164.067 87.933 162.5 86 162.5H48.9775C42.8988 156.298 37.7516 149.223 33.7197 141.5H58C59.933 141.5 61.5 139.933 61.5 138C61.5 136.067 59.933 134.5 58 134.5H30.4434C27.68 127.846 25.7102 120.8 24.6348 113.49H85.5C87.4329 113.49 88.9999 111.923 89 109.99C89 108.057 87.433 106.49 85.5 106.49H24V44L24.5029 43.8447C26.3224 43.9464 28.1551 44 30 44C30.5009 44 31.0009 43.9939 31.5 43.9863V96C31.5 97.933 33.067 99.5 35 99.5C36.933 99.5 38.5 97.933 38.5 96V43.6309C40.6883 43.4408 42.8557 43.1786 45 42.8457V96.5C45 98.433 46.567 100 48.5 100C50.433 100 52 98.433 52 96.5V77C52 75.8954 52.8954 75 54 75H57.5C58.6046 75 59.5 75.8954 59.5 77V96C59.5 97.933 61.067 99.5 63 99.5C64.933 99.5 66.5 97.933 66.5 96V73.5C66.5 70.4624 64.0376 68 61 68H54C52.8954 68 52 67.1046 52 66V41.4932C54.7121 40.8641 57.3804 40.1208 60 39.2695V58C60 59.6569 61.3431 61 63 61C64.6569 61 66 59.6569 66 58V37.0977C68.5554 36.0756 71.0573 34.9485 73.5 33.7207V96C73.5 97.933 75.067 99.5 77 99.5C78.933 99.5 80.5 97.933 80.5 96V29.8311C83.4388 28.0354 86.2752 26.0887 88.9971 24H89V43ZM74 134.5C70.9624 134.5 68.5 136.962 68.5 140V146.5C68.5 147.605 67.6046 148.5 66.5 148.5H55.5C53.567 148.5 52 150.067 52 152C52 153.933 53.567 155.5 55.5 155.5H84C87.0376 155.5 89.5 153.038 89.5 150V140C89.5 136.962 87.0376 134.5 84 134.5H74ZM38 119.5C36.067 119.5 34.5 121.067 34.5 123C34.5 124.933 36.067 126.5 38 126.5H86C87.933 126.5 89.5 124.933 89.5 123C89.5 121.067 87.933 119.5 86 119.5H38Z" fill="#2365FF"/>
<path d="M157 63.5H144.5C142.843 63.5 141.5 62.1569 141.5 60.5C141.5 58.8431 142.843 57.5 144.5 57.5H157V63.5Z" fill="#2365FF"/>
<path d="M132.5 57.5C134.157 57.5 135.5 58.8431 135.5 60.5C135.5 62.1569 134.157 63.5 132.5 63.5C130.843 63.5 129.5 62.1569 129.5 60.5C129.5 58.8431 130.843 57.5 132.5 57.5Z" fill="#2365FF"/>
</svg>