<svg width="661" height="210" viewBox="0 0 661 210" fill="none" xmlns="http://www.w3.org/2000/svg">
<path d="M79 141.5C80.933 141.5 82.5 143.067 82.5 145C82.5 146.933 80.933 148.5 79 148.5C77.067 148.5 75.5 146.933 75.5 145C75.5 143.067 77.067 141.5 79 141.5Z" fill="#2365FF"/>
<path fill-rule="evenodd" clip-rule="evenodd" d="M89 43H157V50.5H92C90.067 50.5 88.5 52.067 88.5 54C88.5 55.933 90.067 57.5 92 57.5H119.5C121.157 57.5 122.5 58.8431 122.5 60.5V65C122.5 68.0376 124.962 70.5 128 70.5H157V77.5H117.5V70C117.5 66.9624 115.038 64.5 112 64.5H92C90.067 64.5 88.5 66.067 88.5 68C88.5 69.933 90.067 71.5 92 71.5H110.5V79C110.5 82.0376 112.962 84.5 116 84.5H157V92.5H95.5C94.3954 92.5 93.5 91.6046 93.5 90.5V88.5C93.5 87.3954 94.3954 86.5 95.5 86.5H100C101.933 86.5 103.5 84.933 103.5 83C103.5 81.067 101.933 79.5 100 79.5H92C88.9624 79.5 86.5 81.9624 86.5 85V94C86.5 97.0376 88.9624 99.5 92 99.5H157V108C155.954 120.452 152.286 132.234 146.5 142.737V110C146.5 108.067 144.933 106.5 143 106.5C141.067 106.5 139.5 108.067 139.5 110V153.486C137.336 156.329 134.998 159.038 132.5 161.597V110C132.5 108.067 130.933 106.5 129 106.5C127.067 106.5 125.5 108.067 125.5 110V168.026C123.261 169.868 120.926 171.602 118.5 173.22V143C118.5 141.067 116.933 139.5 115 139.5C113.067 139.5 111.5 141.067 111.5 143V177.426C109.071 178.734 106.569 179.933 104 181.015V134.5C104 133.395 104.895 132.5 106 132.5H116.5C117.605 132.5 118.5 131.605 118.5 130.5V110C118.5 108.067 116.933 106.5 115 106.5C113.067 106.5 111.5 108.067 111.5 110V123.5C111.5 124.605 110.605 125.5 109.5 125.5H106C104.895 125.5 104 124.605 104 123.5V110C104 108.067 102.433 106.5 100.5 106.5C98.567 106.5 97 108.067 97 110V183.615C96.2412 183.861 95.4777 184.098 94.709 184.323L89 186V181.25C89 179.179 87.3211 177.5 85.25 177.5H71.75C70.9662 177.5 70.2384 177.74 69.6367 178.151C65.0477 175.639 60.7224 172.739 56.6973 169.5H86C87.933 169.5 89.5 167.933 89.5 166C89.5 164.067 87.933 162.5 86 162.5H48.9775C42.8988 156.298 37.7516 149.223 33.7197 141.5H58C59.933 141.5 61.5 139.933 61.5 138C61.5 136.067 59.933 134.5 58 134.5H30.4434C27.68 127.846 25.7102 120.8 24.6348 113.49H85.5C87.4329 113.49 88.9999 111.923 89 109.99C89 108.057 87.433 106.49 85.5 106.49H24V44L24.5029 43.8447C26.3224 43.9464 28.1551 44 30 44C30.5009 44 31.0009 43.9939 31.5 43.9863V96C31.5 97.933 33.067 99.5 35 99.5C36.933 99.5 38.5 97.933 38.5 96V43.6309C40.6883 43.4408 42.8557 43.1786 45 42.8457V96.5C45 98.433 46.567 100 48.5 100C50.433 100 52 98.433 52 96.5V77C52 75.8954 52.8954 75 54 75H57.5C58.6046 75 59.5 75.8954 59.5 77V96C59.5 97.933 61.067 99.5 63 99.5C64.933 99.5 66.5 97.933 66.5 96V73.5C66.5 70.4624 64.0376 68 61 68H54C52.8954 68 52 67.1046 52 66V41.4932C54.7121 40.8641 57.3804 40.1208 60 39.2695V58C60 59.6569 61.3431 61 63 61C64.6569 61 66 59.6569 66 58V37.0977C68.5554 36.0756 71.0573 34.9485 73.5 33.7207V96C73.5 97.933 75.067 99.5 77 99.5C78.933 99.5 80.5 97.933 80.5 96V29.8311C83.4388 28.0354 86.2752 26.0887 88.9971 24H89V43ZM74 134.5C70.9624 134.5 68.5 136.962 68.5 140V146.5C68.5 147.605 67.6046 148.5 66.5 148.5H55.5C53.567 148.5 52 150.067 52 152C52 153.933 53.567 155.5 55.5 155.5H84C87.0376 155.5 89.5 153.038 89.5 150V140C89.5 136.962 87.0376 134.5 84 134.5H74ZM38 119.5C36.067 119.5 34.5 121.067 34.5 123C34.5 124.933 36.067 126.5 38 126.5H86C87.933 126.5 89.5 124.933 89.5 123C89.5 121.067 87.933 119.5 86 119.5H38Z" fill="#2365FF"/>
<path d="M157 63.5H144.5C142.843 63.5 141.5 62.1569 141.5 60.5C141.5 58.8431 142.843 57.5 144.5 57.5H157V63.5Z" fill="#2365FF"/>
<path d="M132.5 57.5C134.157 57.5 135.5 58.8431 135.5 60.5C135.5 62.1569 134.157 63.5 132.5 63.5C130.843 63.5 129.5 62.1569 129.5 60.5C129.5 58.8431 130.843 57.5 132.5 57.5Z" fill="#2365FF"/>
<path d="M212.844 77.34C212.844 78.964 213.656 80.28 215.28 81.288C216.904 82.24 218.864 83.024 221.16 83.64C223.456 84.2 225.752 84.872 228.048 85.656C230.344 86.384 232.304 87.672 233.928 89.52C235.552 91.312 236.364 93.636 236.364 96.492C236.364 100.3 234.88 103.352 231.912 105.648C229 107.944 225.248 109.092 220.656 109.092C216.568 109.092 213.068 108.196 210.156 106.404C207.244 104.612 205.172 102.232 203.94 99.264L210.24 95.652C210.912 97.668 212.172 99.264 214.02 100.44C215.868 101.616 218.08 102.204 220.656 102.204C223.064 102.204 225.052 101.756 226.62 100.86C228.188 99.908 228.972 98.452 228.972 96.492C228.972 94.868 228.16 93.58 226.536 92.628C224.912 91.62 222.952 90.836 220.656 90.276C218.36 89.66 216.064 88.96 213.768 88.176C211.472 87.392 209.512 86.104 207.888 84.312C206.264 82.52 205.452 80.224 205.452 77.424C205.452 73.784 206.852 70.788 209.652 68.436C212.508 66.084 216.064 64.908 220.32 64.908C223.736 64.908 226.76 65.692 229.392 67.26C232.08 68.772 234.096 70.9 235.44 73.644L229.308 77.088C227.796 73.504 224.8 71.712 220.32 71.712C218.248 71.712 216.484 72.216 215.028 73.224C213.572 74.176 212.844 75.548 212.844 77.34ZM245.363 58.356C243.963 58.356 242.787 57.88 241.835 56.928C240.883 55.976 240.407 54.828 240.407 53.484C240.407 52.14 240.883 50.992 241.835 50.04C242.787 49.032 243.963 48.528 245.363 48.528C246.707 48.528 247.855 49.032 248.807 50.04C249.759 50.992 250.235 52.14 250.235 53.484C250.235 54.828 249.759 55.976 248.807 56.928C247.855 57.88 246.707 58.356 245.363 58.356ZM241.667 108V66H248.975V108H241.667ZM276.924 109.092C270.596 109.092 265.332 106.992 261.132 102.792C256.932 98.536 254.832 93.272 254.832 87C254.832 80.728 256.932 75.492 261.132 71.292C265.332 67.036 270.596 64.908 276.924 64.908C281.068 64.908 284.792 65.916 288.096 67.932C291.4 69.892 293.864 72.552 295.488 75.912L289.356 79.44C288.292 77.2 286.64 75.408 284.4 74.064C282.216 72.72 279.724 72.048 276.924 72.048C272.724 72.048 269.196 73.476 266.34 76.332C263.54 79.188 262.14 82.744 262.14 87C262.14 91.2 263.54 94.728 266.34 97.584C269.196 100.44 272.724 101.868 276.924 101.868C279.724 101.868 282.244 101.224 284.484 99.936C286.724 98.592 288.432 96.8 289.608 94.56L295.824 98.172C294.032 101.476 291.456 104.136 288.096 106.152C284.736 108.112 281.012 109.092 276.924 109.092ZM321.015 64.908C325.943 64.908 329.891 66.476 332.859 69.612C335.827 72.692 337.311 76.892 337.311 82.212V108H330.003V82.632C330.003 79.216 329.079 76.584 327.231 74.736C325.383 72.832 322.835 71.88 319.587 71.88C315.947 71.88 313.007 73.028 310.767 75.324C308.527 77.564 307.407 81.036 307.407 85.74V108H300.099V49.2H307.407V72.048C310.375 67.288 314.911 64.908 321.015 64.908ZM349.697 90.36C350.425 94.112 352.133 97.024 354.821 99.096C357.565 101.168 360.925 102.204 364.901 102.204C370.445 102.204 374.477 100.16 376.997 96.072L383.213 99.6C379.125 105.928 372.965 109.092 364.733 109.092C358.069 109.092 352.637 107.02 348.437 102.876C344.293 98.676 342.221 93.384 342.221 87C342.221 80.672 344.265 75.408 348.353 71.208C352.441 67.008 357.733 64.908 364.229 64.908C370.389 64.908 375.401 67.092 379.265 71.46C383.185 75.772 385.145 80.98 385.145 87.084C385.145 88.148 385.061 89.24 384.893 90.36H349.697ZM364.229 71.796C360.309 71.796 357.061 72.916 354.485 75.156C351.909 77.34 350.313 80.28 349.697 83.976H377.753C377.137 80 375.569 76.976 373.049 74.904C370.529 72.832 367.589 71.796 364.229 71.796ZM397.914 73.056C400.322 67.848 404.69 65.244 411.018 65.244V72.888C407.434 72.72 404.354 73.672 401.778 75.744C399.202 77.816 397.914 81.148 397.914 85.74V108H390.606V66H397.914V73.056ZM436.144 64.908C441.072 64.908 445.02 66.476 447.988 69.612C450.956 72.692 452.44 76.892 452.44 82.212V108H445.132V82.632C445.132 79.216 444.208 76.584 442.36 74.736C440.512 72.832 437.964 71.88 434.716 71.88C431.076 71.88 428.136 73.028 425.896 75.324C423.656 77.564 422.536 81.036 422.536 85.74V108H415.228V49.2H422.536V72.048C425.504 67.288 430.04 64.908 436.144 64.908ZM494.478 66H501.786V108H494.478V100.776C490.838 106.32 485.546 109.092 478.602 109.092C472.722 109.092 467.71 106.964 463.566 102.708C459.422 98.396 457.35 93.16 457.35 87C457.35 80.84 459.422 75.632 463.566 71.376C467.71 67.064 472.722 64.908 478.602 64.908C485.546 64.908 490.838 67.68 494.478 73.224V66ZM479.526 102.036C483.782 102.036 487.338 100.608 490.194 97.752C493.05 94.84 494.478 91.256 494.478 87C494.478 82.744 493.05 79.188 490.194 76.332C487.338 73.42 483.782 71.964 479.526 71.964C475.326 71.964 471.798 73.42 468.942 76.332C466.086 79.188 464.658 82.744 464.658 87C464.658 91.256 466.086 94.84 468.942 97.752C471.798 100.608 475.326 102.036 479.526 102.036ZM539.319 66H547.215L530.415 108H521.847L505.047 66H512.943L526.131 100.188L539.319 66ZM553.938 90.36C554.666 94.112 556.374 97.024 559.062 99.096C561.806 101.168 565.166 102.204 569.142 102.204C574.686 102.204 578.718 100.16 581.238 96.072L587.454 99.6C583.366 105.928 577.206 109.092 568.974 109.092C562.31 109.092 556.878 107.02 552.678 102.876C548.534 98.676 546.462 93.384 546.462 87C546.462 80.672 548.506 75.408 552.594 71.208C556.682 67.008 561.974 64.908 568.47 64.908C574.63 64.908 579.642 67.092 583.506 71.46C587.426 75.772 589.386 80.98 589.386 87.084C589.386 88.148 589.302 89.24 589.134 90.36H553.938ZM568.47 71.796C564.55 71.796 561.302 72.916 558.726 75.156C556.15 77.34 554.554 80.28 553.938 83.976H581.994C581.378 80 579.81 76.976 577.29 74.904C574.77 72.832 571.83 71.796 568.47 71.796ZM615.763 64.908C620.691 64.908 624.639 66.476 627.607 69.612C630.575 72.692 632.059 76.892 632.059 82.212V108H624.751V82.632C624.751 79.216 623.827 76.584 621.979 74.736C620.131 72.832 617.583 71.88 614.335 71.88C610.695 71.88 607.755 73.028 605.515 75.324C603.275 77.564 602.155 81.036 602.155 85.74V108H594.847V66H602.155V72.048C605.123 67.288 609.659 64.908 615.763 64.908Z" fill="white"/>
<path d="M217.75 139.2H210.55V154.35C210.55 155.717 210.817 156.7 211.35 157.3C211.883 157.867 212.683 158.167 213.75 158.2C214.817 158.2 216.15 158.167 217.75 158.1V161C214.25 161.533 211.617 161.283 209.85 160.25C208.117 159.217 207.25 157.25 207.25 154.35V139.2H202V136H207.25V130L210.55 129V136H217.75V139.2ZM232.286 135.4C235.986 135.4 238.97 136.717 241.236 139.35C243.536 141.95 244.686 145.033 244.686 148.6C244.686 148.967 244.653 149.483 244.586 150.15H222.636C222.97 152.683 224.036 154.7 225.836 156.2C227.67 157.667 229.92 158.4 232.586 158.4C234.486 158.4 236.12 158.017 237.486 157.25C238.886 156.45 239.936 155.417 240.636 154.15L243.536 155.85C242.436 157.617 240.936 159.017 239.036 160.05C237.136 161.083 234.97 161.6 232.536 161.6C228.603 161.6 225.403 160.367 222.936 157.9C220.47 155.433 219.236 152.3 219.236 148.5C219.236 144.767 220.453 141.65 222.886 139.15C225.32 136.65 228.453 135.4 232.286 135.4ZM232.286 138.6C229.686 138.6 227.503 139.383 225.736 140.95C224.003 142.483 222.97 144.483 222.636 146.95H241.286C240.953 144.317 239.936 142.267 238.236 140.8C236.536 139.333 234.553 138.6 232.286 138.6ZM260.586 161.6C256.819 161.6 253.686 160.35 251.186 157.85C248.686 155.317 247.436 152.2 247.436 148.5C247.436 144.8 248.686 141.7 251.186 139.2C253.686 136.667 256.819 135.4 260.586 135.4C263.052 135.4 265.269 136 267.236 137.2C269.202 138.367 270.636 139.95 271.536 141.95L268.836 143.5C268.169 142 267.086 140.817 265.586 139.95C264.119 139.05 262.452 138.6 260.586 138.6C257.819 138.6 255.486 139.567 253.586 141.5C251.686 143.4 250.736 145.733 250.736 148.5C250.736 151.267 251.686 153.617 253.586 155.55C255.486 157.45 257.819 158.4 260.586 158.4C262.452 158.4 264.119 157.967 265.586 157.1C267.052 156.2 268.202 155 269.036 153.5L271.786 155.1C270.752 157.1 269.236 158.683 267.236 159.85C265.236 161.017 263.019 161.6 260.586 161.6ZM287.223 135.4C290.257 135.4 292.64 136.333 294.373 138.2C296.14 140.033 297.023 142.517 297.023 145.65V161H293.723V145.65C293.723 143.417 293.123 141.683 291.923 140.45C290.757 139.217 289.09 138.6 286.923 138.6C284.523 138.6 282.573 139.367 281.073 140.9C279.573 142.4 278.823 144.733 278.823 147.9V161H275.523V126H278.823V139.9C280.69 136.9 283.49 135.4 287.223 135.4ZM314.104 135.4C317.138 135.4 319.521 136.333 321.254 138.2C323.021 140.033 323.904 142.517 323.904 145.65V161H320.604V145.65C320.604 143.417 320.004 141.683 318.804 140.45C317.638 139.217 315.971 138.6 313.804 138.6C311.404 138.6 309.454 139.367 307.954 140.9C306.454 142.4 305.704 144.733 305.704 147.9V161H302.404V136H305.704V139.9C307.571 136.9 310.371 135.4 314.104 135.4ZM350.235 157.85C347.702 160.35 344.602 161.6 340.935 161.6C337.268 161.6 334.152 160.35 331.585 157.85C329.052 155.317 327.785 152.2 327.785 148.5C327.785 144.8 329.052 141.7 331.585 139.2C334.152 136.667 337.268 135.4 340.935 135.4C344.602 135.4 347.702 136.667 350.235 139.2C352.802 141.7 354.085 144.8 354.085 148.5C354.085 152.2 352.802 155.317 350.235 157.85ZM333.935 155.55C335.835 157.45 338.168 158.4 340.935 158.4C343.702 158.4 346.035 157.45 347.935 155.55C349.835 153.617 350.785 151.267 350.785 148.5C350.785 145.733 349.835 143.4 347.935 141.5C346.035 139.567 343.702 138.6 340.935 138.6C338.168 138.6 335.835 139.567 333.935 141.5C332.035 143.4 331.085 145.733 331.085 148.5C331.085 151.267 332.035 153.617 333.935 155.55ZM358.607 161V124.5H361.907V161H358.607ZM388.86 157.85C386.327 160.35 383.227 161.6 379.56 161.6C375.893 161.6 372.777 160.35 370.21 157.85C367.677 155.317 366.41 152.2 366.41 148.5C366.41 144.8 367.677 141.7 370.21 139.2C372.777 136.667 375.893 135.4 379.56 135.4C383.227 135.4 386.327 136.667 388.86 139.2C391.427 141.7 392.71 144.8 392.71 148.5C392.71 152.2 391.427 155.317 388.86 157.85ZM372.56 155.55C374.46 157.45 376.793 158.4 379.56 158.4C382.327 158.4 384.66 157.45 386.56 155.55C388.46 153.617 389.41 151.267 389.41 148.5C389.41 145.733 388.46 143.4 386.56 141.5C384.66 139.567 382.327 138.6 379.56 138.6C376.793 138.6 374.46 139.567 372.56 141.5C370.66 143.4 369.71 145.733 369.71 148.5C369.71 151.267 370.66 153.617 372.56 155.55ZM418.732 136H422.032V160C422.032 163.6 420.799 166.433 418.332 168.5C415.866 170.567 412.916 171.6 409.482 171.6C403.616 171.6 399.666 169.567 397.632 165.5L400.532 163.85C402.032 166.883 405.016 168.4 409.482 168.4C412.349 168.4 414.599 167.633 416.232 166.1C417.899 164.6 418.732 162.567 418.732 160V156.1C416.432 159.767 413.066 161.6 408.632 161.6C405.066 161.6 402.016 160.333 399.482 157.8C396.982 155.267 395.732 152.167 395.732 148.5C395.732 144.833 396.982 141.733 399.482 139.2C402.016 136.667 405.066 135.4 408.632 135.4C413.066 135.4 416.432 137.233 418.732 140.9V136ZM401.882 155.55C403.782 157.45 406.116 158.4 408.882 158.4C411.649 158.4 413.982 157.45 415.882 155.55C417.782 153.617 418.732 151.267 418.732 148.5C418.732 145.733 417.782 143.4 415.882 141.5C413.982 139.567 411.649 138.6 408.882 138.6C406.116 138.6 403.782 139.567 401.882 141.5C399.982 143.4 399.032 145.733 399.032 148.5C399.032 151.267 399.982 153.617 401.882 155.55ZM431.37 130C430.903 130.467 430.336 130.7 429.67 130.7C429.003 130.7 428.436 130.467 427.97 130C427.503 129.533 427.27 128.967 427.27 128.3C427.27 127.633 427.503 127.067 427.97 126.6C428.436 126.133 429.003 125.9 429.67 125.9C430.336 125.9 430.903 126.133 431.37 126.6C431.836 127.067 432.07 127.633 432.07 128.3C432.07 128.967 431.836 129.533 431.37 130ZM428.02 161V136H431.32V161H428.02ZM448.872 135.4C452.572 135.4 455.556 136.717 457.822 139.35C460.122 141.95 461.272 145.033 461.272 148.6C461.272 148.967 461.239 149.483 461.172 150.15H439.222C439.556 152.683 440.622 154.7 442.422 156.2C444.256 157.667 446.506 158.4 449.172 158.4C451.072 158.4 452.706 158.017 454.072 157.25C455.472 156.45 456.522 155.417 457.222 154.15L460.122 155.85C459.022 157.617 457.522 159.017 455.622 160.05C453.722 161.083 451.556 161.6 449.122 161.6C445.189 161.6 441.989 160.367 439.522 157.9C437.056 155.433 435.822 152.3 435.822 148.5C435.822 144.767 437.039 141.65 439.472 139.15C441.906 136.65 445.039 135.4 448.872 135.4ZM448.872 138.6C446.272 138.6 444.089 139.383 442.322 140.95C440.589 142.483 439.556 144.483 439.222 146.95H457.872C457.539 144.317 456.522 142.267 454.822 140.8C453.122 139.333 451.139 138.6 448.872 138.6ZM467.145 142.55C467.145 143.683 467.645 144.583 468.645 145.25C469.645 145.917 470.862 146.433 472.295 146.8C473.728 147.167 475.162 147.583 476.595 148.05C478.028 148.483 479.245 149.233 480.245 150.3C481.245 151.333 481.745 152.7 481.745 154.4C481.745 156.533 480.895 158.267 479.195 159.6C477.528 160.933 475.362 161.6 472.695 161.6C470.295 161.6 468.245 161.067 466.545 160C464.878 158.933 463.712 157.55 463.045 155.85L465.845 154.2C466.312 155.5 467.145 156.533 468.345 157.3C469.578 158.033 471.028 158.4 472.695 158.4C474.328 158.4 475.695 158.083 476.795 157.45C477.895 156.783 478.445 155.767 478.445 154.4C478.445 153.267 477.945 152.367 476.945 151.7C475.945 151.033 474.728 150.517 473.295 150.15C471.862 149.783 470.428 149.383 468.995 148.95C467.562 148.483 466.345 147.733 465.345 146.7C464.345 145.633 463.845 144.25 463.845 142.55C463.845 140.517 464.645 138.817 466.245 137.45C467.878 136.083 469.928 135.4 472.395 135.4C474.428 135.4 476.212 135.867 477.745 136.8C479.278 137.7 480.412 138.933 481.145 140.5L478.395 142.1C477.428 139.767 475.428 138.6 472.395 138.6C470.962 138.6 469.728 138.95 468.695 139.65C467.662 140.317 467.145 141.283 467.145 142.55Z" fill="white"/>
</svg>
