<svg xmlns="http://www.w3.org/2000/svg" xmlns:xlink="http://www.w3.org/1999/xlink" width="1025" zoomAndPan="magnify" viewBox="0 0 768.75 431.999984" height="576" preserveAspectRatio="xMidYMid meet" version="1.0"><path fill="#2365ff" d="M 91.953125 258.402344 C 94.195312 258.402344 96.019531 260.222656 96.019531 262.46875 C 96.019531 264.714844 94.195312 266.53125 91.953125 266.53125 C 89.707031 266.53125 87.886719 264.714844 87.886719 262.46875 C 87.886719 260.222656 89.707031 258.402344 91.953125 258.402344 Z M 91.953125 258.402344 " fill-opacity="1" fill-rule="nonzero"/><path fill="#2365ff" d="M 103.566406 143.988281 L 182.546875 143.988281 L 182.546875 152.703125 L 107.050781 152.703125 C 104.808594 152.703125 102.984375 154.519531 102.984375 156.765625 C 102.984375 159.011719 104.808594 160.832031 107.050781 160.832031 L 138.992188 160.832031 C 140.917969 160.832031 142.476562 162.390625 142.476562 164.316406 L 142.476562 169.542969 C 142.476562 173.074219 145.335938 175.933594 148.863281 175.933594 L 182.546875 175.933594 L 182.546875 184.0625 L 136.667969 184.0625 L 136.667969 175.351562 C 136.667969 171.824219 133.8125 168.960938 130.28125 168.960938 L 107.050781 168.960938 C 104.808594 168.960938 102.984375 170.785156 102.984375 173.03125 C 102.984375 175.273438 104.808594 177.09375 107.050781 177.09375 L 128.539062 177.09375 L 128.539062 185.804688 C 128.539062 189.332031 131.398438 192.195312 134.925781 192.195312 L 182.546875 192.195312 L 182.546875 201.484375 L 111.117188 201.484375 C 109.832031 201.484375 108.792969 200.445312 108.792969 199.164062 L 108.792969 196.839844 C 108.792969 195.558594 109.832031 194.519531 111.117188 194.519531 L 116.34375 194.519531 C 118.585938 194.519531 120.410156 192.695312 120.410156 190.453125 C 120.410156 188.207031 118.585938 186.386719 116.34375 186.386719 L 107.050781 186.386719 C 103.523438 186.386719 100.664062 189.246094 100.664062 192.773438 L 100.664062 203.226562 C 100.664062 206.757812 103.523438 209.617188 107.050781 209.617188 L 182.546875 209.617188 L 182.546875 219.492188 C 181.332031 233.953125 177.070312 247.640625 170.351562 259.839844 L 170.351562 221.8125 C 170.351562 219.566406 168.53125 217.75 166.289062 217.75 C 164.042969 217.75 162.222656 219.566406 162.222656 221.8125 L 162.222656 272.324219 C 159.707031 275.625 156.992188 278.773438 154.09375 281.746094 L 154.09375 221.8125 C 154.09375 219.566406 152.269531 217.75 150.027344 217.75 C 147.78125 217.75 145.960938 219.566406 145.960938 221.8125 L 145.960938 289.214844 C 143.363281 291.351562 140.648438 293.367188 137.832031 295.25 L 137.832031 260.144531 C 137.832031 257.898438 136.011719 256.078125 133.765625 256.078125 C 131.519531 256.078125 129.699219 257.898438 129.699219 260.144531 L 129.699219 300.132812 C 126.878906 301.652344 123.972656 303.042969 120.988281 304.300781 L 120.988281 250.273438 C 120.988281 248.988281 122.027344 247.949219 123.3125 247.949219 L 135.507812 247.949219 C 136.792969 247.949219 137.832031 246.910156 137.832031 245.625 L 137.832031 221.8125 C 137.832031 219.566406 136.011719 217.75 133.765625 217.75 C 131.519531 217.75 129.699219 219.566406 129.699219 221.8125 L 129.699219 237.492188 C 129.699219 238.78125 128.664062 239.816406 127.375 239.816406 L 123.3125 239.816406 C 122.027344 239.816406 120.988281 238.78125 120.988281 237.492188 L 120.988281 221.8125 C 120.988281 219.566406 119.171875 217.75 116.925781 217.75 C 114.679688 217.75 112.859375 219.566406 112.859375 221.8125 L 112.859375 307.320312 C 111.976562 307.609375 111.089844 307.882812 110.199219 308.144531 L 103.566406 310.089844 L 103.566406 304.574219 C 103.566406 302.167969 101.617188 300.21875 99.210938 300.21875 L 83.535156 300.21875 C 82.621094 300.21875 81.777344 300.496094 81.074219 300.972656 C 75.75 298.058594 70.722656 294.6875 66.050781 290.925781 L 100.082031 290.925781 C 102.328125 290.925781 104.148438 289.105469 104.148438 286.859375 C 104.148438 284.613281 102.328125 282.796875 100.082031 282.796875 L 57.082031 282.796875 C 50.023438 275.589844 44.042969 267.371094 39.363281 258.402344 L 67.5625 258.402344 C 69.804688 258.402344 71.628906 256.582031 71.628906 254.335938 C 71.628906 252.089844 69.804688 250.273438 67.5625 250.273438 L 35.554688 250.273438 C 32.34375 242.542969 30.058594 234.355469 28.808594 225.867188 L 99.5 225.867188 C 101.746094 225.867188 103.566406 224.046875 103.566406 221.800781 C 103.566406 219.554688 101.746094 217.738281 99.5 217.738281 L 28.070312 217.738281 L 28.070312 145.152344 L 28.65625 144.96875 C 30.769531 145.089844 32.898438 145.152344 35.039062 145.152344 C 35.621094 145.152344 36.203125 145.144531 36.78125 145.136719 L 36.78125 205.554688 C 36.78125 207.796875 38.605469 209.617188 40.847656 209.617188 C 43.09375 209.617188 44.914062 207.796875 44.914062 205.554688 L 44.914062 144.722656 C 47.453125 144.5 49.972656 144.195312 52.460938 143.808594 L 52.460938 206.132812 C 52.460938 208.378906 54.28125 210.199219 56.527344 210.199219 C 58.773438 210.199219 60.59375 208.378906 60.59375 206.132812 L 60.59375 183.480469 C 60.59375 182.199219 61.632812 181.160156 62.914062 181.160156 L 66.980469 181.160156 C 68.261719 181.160156 69.300781 182.199219 69.300781 183.480469 L 69.300781 205.554688 C 69.300781 207.796875 71.125 209.617188 73.367188 209.617188 C 75.613281 209.617188 77.433594 207.796875 77.433594 205.554688 L 77.433594 179.417969 C 77.433594 175.886719 74.574219 173.03125 71.046875 173.03125 L 62.914062 173.03125 C 61.632812 173.03125 60.59375 171.988281 60.59375 170.703125 L 60.59375 142.238281 C 63.742188 141.507812 66.84375 140.648438 69.886719 139.65625 L 69.886719 161.414062 C 69.886719 163.339844 71.445312 164.894531 73.367188 164.894531 C 75.292969 164.894531 76.851562 163.339844 76.851562 161.414062 L 76.851562 137.136719 C 79.824219 135.945312 82.726562 134.636719 85.566406 133.210938 L 85.566406 205.554688 C 85.566406 207.796875 87.382812 209.617188 89.632812 209.617188 C 91.875 209.617188 93.695312 207.796875 93.695312 205.554688 L 93.695312 128.695312 C 97.109375 126.605469 100.402344 124.34375 103.5625 121.921875 L 103.566406 121.921875 Z M 86.144531 250.273438 C 82.617188 250.273438 79.757812 253.128906 79.757812 256.660156 L 79.757812 264.210938 C 79.757812 265.492188 78.71875 266.53125 77.433594 266.53125 L 64.65625 266.53125 C 62.414062 266.53125 60.59375 268.355469 60.59375 270.601562 C 60.59375 272.84375 62.414062 274.664062 64.65625 274.664062 L 97.761719 274.664062 C 101.289062 274.664062 104.148438 271.804688 104.148438 268.273438 L 104.148438 256.660156 C 104.148438 253.128906 101.289062 250.273438 97.761719 250.273438 Z M 44.332031 232.847656 C 42.085938 232.847656 40.265625 234.667969 40.265625 236.914062 C 40.265625 239.160156 42.085938 240.980469 44.332031 240.980469 L 100.082031 240.980469 C 102.328125 240.980469 104.148438 239.160156 104.148438 236.914062 C 104.148438 234.667969 102.328125 232.847656 100.082031 232.847656 Z M 44.332031 232.847656 " fill-opacity="1" fill-rule="evenodd"/><path fill="#2365ff" d="M 182.546875 167.800781 L 168.03125 167.800781 C 166.101562 167.800781 164.546875 166.242188 164.546875 164.316406 C 164.546875 162.390625 166.101562 160.832031 168.03125 160.832031 L 182.546875 160.832031 Z M 182.546875 167.800781 " fill-opacity="1" fill-rule="nonzero"/><path fill="#2365ff" d="M 154.09375 160.832031 C 156.015625 160.832031 157.574219 162.390625 157.574219 164.316406 C 157.574219 166.242188 156.015625 167.800781 154.09375 167.800781 C 152.164062 167.800781 150.605469 166.242188 150.605469 164.316406 C 150.605469 162.390625 152.164062 160.832031 154.09375 160.832031 Z M 154.09375 160.832031 " fill-opacity="1" fill-rule="nonzero"/><path fill="#737373" d="M 247.40625 183.878906 C 247.40625 185.765625 248.351562 187.292969 250.238281 188.464844 C 252.125 189.566406 254.402344 190.480469 257.066406 191.195312 C 259.734375 191.847656 262.398438 192.625 265.066406 193.535156 C 267.734375 194.382812 270.011719 195.878906 271.898438 198.027344 C 273.785156 200.105469 274.726562 202.804688 274.726562 206.125 C 274.726562 210.546875 273.003906 214.089844 269.554688 216.757812 C 266.171875 219.425781 261.8125 220.757812 256.480469 220.757812 C 251.734375 220.757812 247.667969 219.71875 244.285156 217.636719 C 240.902344 215.554688 238.5 212.789062 237.066406 209.34375 L 244.386719 205.148438 C 245.164062 207.488281 246.628906 209.34375 248.777344 210.710938 C 250.921875 212.074219 253.492188 212.757812 256.480469 212.757812 C 259.277344 212.757812 261.589844 212.238281 263.410156 211.195312 C 265.230469 210.09375 266.140625 208.398438 266.140625 206.125 C 266.140625 204.238281 265.195312 202.742188 263.3125 201.632812 C 261.425781 200.464844 259.148438 199.550781 256.480469 198.902344 C 253.816406 198.1875 251.148438 197.375 248.484375 196.464844 C 245.816406 195.554688 243.539062 194.058594 241.652344 191.976562 C 239.765625 189.894531 238.824219 187.226562 238.824219 183.972656 C 238.824219 179.75 240.449219 176.265625 243.699219 173.535156 C 247.019531 170.804688 251.148438 169.4375 256.089844 169.4375 C 260.058594 169.4375 263.570312 170.347656 266.628906 172.167969 C 269.75 173.925781 272.089844 176.398438 273.652344 179.585938 L 266.53125 183.585938 C 264.773438 179.421875 261.296875 177.339844 256.089844 177.339844 C 253.683594 177.339844 251.636719 177.925781 249.945312 179.09375 C 248.253906 180.203125 247.40625 181.796875 247.40625 183.878906 Z M 285.179688 161.828125 C 283.550781 161.828125 282.1875 161.273438 281.078125 160.167969 C 279.976562 159.0625 279.421875 157.726562 279.421875 156.164062 C 279.421875 154.605469 279.976562 153.273438 281.078125 152.167969 C 282.1875 150.996094 283.550781 150.410156 285.179688 150.410156 C 286.742188 150.410156 288.074219 150.996094 289.175781 152.167969 C 290.285156 153.273438 290.839844 154.605469 290.839844 156.164062 C 290.839844 157.726562 290.285156 159.0625 289.175781 160.167969 C 288.074219 161.273438 286.742188 161.828125 285.179688 161.828125 Z M 280.886719 219.492188 L 280.886719 170.703125 L 289.375 170.703125 L 289.375 219.492188 Z M 321.835938 220.757812 C 314.484375 220.757812 308.371094 218.320312 303.492188 213.441406 C 298.617188 208.496094 296.175781 202.382812 296.175781 195.097656 C 296.175781 187.8125 298.617188 181.730469 303.492188 176.851562 C 308.371094 171.90625 314.484375 169.4375 321.835938 169.4375 C 326.648438 169.4375 330.972656 170.609375 334.8125 172.949219 C 338.648438 175.226562 341.511719 178.316406 343.398438 182.21875 L 336.273438 186.316406 C 335.039062 183.714844 333.121094 181.632812 330.519531 180.074219 C 327.984375 178.511719 325.085938 177.730469 321.835938 177.730469 C 316.957031 177.730469 312.859375 179.386719 309.542969 182.707031 C 306.289062 186.023438 304.664062 190.152344 304.664062 195.097656 C 304.664062 199.976562 306.289062 204.074219 309.542969 207.390625 C 312.859375 210.710938 316.957031 212.367188 321.835938 212.367188 C 325.085938 212.367188 328.015625 211.617188 330.617188 210.125 C 333.21875 208.5625 335.203125 206.480469 336.566406 203.878906 L 343.785156 208.074219 C 341.707031 211.910156 338.714844 215 334.8125 217.34375 C 330.910156 219.621094 326.582031 220.757812 321.835938 220.757812 Z M 373.042969 169.4375 C 378.769531 169.4375 383.355469 171.257812 386.804688 174.902344 C 390.25 178.476562 391.972656 183.355469 391.972656 189.535156 L 391.972656 219.492188 L 383.484375 219.492188 L 383.484375 190.023438 C 383.484375 186.054688 382.410156 183 380.265625 180.851562 C 378.121094 178.640625 375.160156 177.535156 371.386719 177.535156 C 367.160156 177.535156 363.746094 178.871094 361.140625 181.535156 C 358.542969 184.136719 357.242188 188.171875 357.242188 193.632812 L 357.242188 219.492188 L 348.753906 219.492188 L 348.753906 151.191406 L 357.242188 151.191406 L 357.242188 177.730469 C 360.6875 172.199219 365.957031 169.4375 373.042969 169.4375 Z M 406.359375 199 C 407.207031 203.359375 409.1875 206.742188 412.308594 209.148438 C 415.496094 211.554688 419.402344 212.757812 424.019531 212.757812 C 430.457031 212.757812 435.140625 210.382812 438.070312 205.636719 L 445.289062 209.734375 C 440.539062 217.082031 433.386719 220.757812 423.824219 220.757812 C 416.082031 220.757812 409.773438 218.351562 404.894531 213.539062 C 400.082031 208.660156 397.675781 202.511719 397.675781 195.097656 C 397.675781 187.746094 400.050781 181.632812 404.796875 176.753906 C 409.546875 171.875 415.691406 169.4375 423.238281 169.4375 C 430.390625 169.4375 436.214844 171.972656 440.703125 177.046875 C 445.253906 182.054688 447.53125 188.105469 447.53125 195.195312 C 447.53125 196.429688 447.433594 197.703125 447.238281 199 Z M 423.238281 177.4375 C 418.6875 177.4375 414.914062 178.738281 411.921875 181.339844 C 408.925781 183.878906 407.074219 187.292969 406.359375 191.585938 L 438.945312 191.585938 C 438.230469 186.96875 436.40625 183.457031 433.480469 181.046875 C 430.554688 178.640625 427.140625 177.4375 423.238281 177.4375 Z M 462.363281 178.902344 C 465.160156 172.851562 470.230469 169.828125 477.582031 169.828125 L 477.582031 178.707031 C 473.417969 178.511719 469.84375 179.617188 466.847656 182.023438 C 463.859375 184.429688 462.363281 188.300781 462.363281 193.632812 L 462.363281 219.492188 L 453.875 219.492188 L 453.875 170.703125 L 462.363281 170.703125 Z M 506.765625 169.4375 C 512.488281 169.4375 517.074219 171.257812 520.519531 174.902344 C 523.96875 178.476562 525.691406 183.355469 525.691406 189.535156 L 525.691406 219.492188 L 517.207031 219.492188 L 517.207031 190.023438 C 517.207031 186.054688 516.132812 183 513.984375 180.851562 C 511.835938 178.640625 508.878906 177.535156 505.105469 177.535156 C 500.878906 177.535156 497.464844 178.871094 494.863281 181.535156 C 492.261719 184.136719 490.957031 188.171875 490.957031 193.632812 L 490.957031 219.492188 L 482.472656 219.492188 L 482.472656 151.191406 L 490.957031 151.191406 L 490.957031 177.730469 C 494.410156 172.199219 499.675781 169.4375 506.765625 169.4375 Z M 574.519531 170.703125 L 583.003906 170.703125 L 583.003906 219.492188 L 574.519531 219.492188 L 574.519531 211.101562 C 570.292969 217.539062 564.144531 220.757812 556.078125 220.757812 C 549.25 220.757812 543.425781 218.289062 538.613281 213.34375 C 533.804688 208.335938 531.394531 202.253906 531.394531 195.097656 C 531.394531 187.941406 533.804688 181.890625 538.613281 176.949219 C 543.425781 171.941406 549.25 169.4375 556.078125 169.4375 C 564.144531 169.4375 570.292969 172.65625 574.519531 179.09375 Z M 557.152344 212.5625 C 562.09375 212.5625 566.226562 210.902344 569.542969 207.585938 C 572.859375 204.207031 574.519531 200.042969 574.519531 195.097656 C 574.519531 190.152344 572.859375 186.023438 569.542969 182.707031 C 566.226562 179.324219 562.09375 177.632812 557.152344 177.632812 C 552.273438 177.632812 548.175781 179.324219 544.859375 182.707031 C 541.539062 186.023438 539.882812 190.152344 539.882812 195.097656 C 539.882812 200.042969 541.539062 204.207031 544.859375 207.585938 C 548.175781 210.902344 552.273438 212.5625 557.152344 212.5625 Z M 626.601562 170.703125 L 635.769531 170.703125 L 616.257812 219.492188 L 606.308594 219.492188 L 586.792969 170.703125 L 595.964844 170.703125 L 611.28125 210.417969 Z M 643.582031 199 C 644.425781 203.359375 646.410156 206.742188 649.53125 209.148438 C 652.71875 211.554688 656.621094 212.757812 661.238281 212.757812 C 667.679688 212.757812 672.363281 210.382812 675.289062 205.636719 L 682.507812 209.734375 C 677.757812 217.082031 670.605469 220.757812 661.042969 220.757812 C 653.304688 220.757812 646.996094 218.351562 642.117188 213.539062 C 637.300781 208.660156 634.898438 202.511719 634.898438 195.097656 C 634.898438 187.746094 637.269531 181.632812 642.019531 176.753906 C 646.765625 171.875 652.910156 169.4375 660.460938 169.4375 C 667.613281 169.4375 673.433594 171.972656 677.921875 177.046875 C 682.472656 182.054688 684.75 188.105469 684.75 195.195312 C 684.75 196.429688 684.652344 197.703125 684.460938 199 Z M 660.460938 177.4375 C 655.90625 177.4375 652.132812 178.738281 649.140625 181.339844 C 646.148438 183.878906 644.296875 187.292969 643.582031 191.585938 L 676.164062 191.585938 C 675.453125 186.96875 673.628906 183.457031 670.699219 181.046875 C 667.773438 178.640625 664.359375 177.4375 660.460938 177.4375 Z M 715.386719 169.4375 C 721.109375 169.4375 725.695312 171.257812 729.144531 174.902344 C 732.589844 178.476562 734.316406 183.355469 734.316406 189.535156 L 734.316406 219.492188 L 725.824219 219.492188 L 725.824219 190.023438 C 725.824219 186.054688 724.753906 183 722.605469 180.851562 C 720.460938 178.640625 717.503906 177.535156 713.730469 177.535156 C 709.5 177.535156 706.085938 178.871094 703.484375 181.535156 C 700.882812 184.136719 699.582031 188.171875 699.582031 193.632812 L 699.582031 219.492188 L 691.09375 219.492188 L 691.09375 170.703125 L 699.582031 170.703125 L 699.582031 177.730469 C 703.027344 172.199219 708.296875 169.4375 715.386719 169.4375 Z M 715.386719 169.4375 " fill-opacity="1" fill-rule="nonzero"/><path fill="#737373" d="M 253.105469 255.730469 L 244.746094 255.730469 L 244.746094 273.328125 C 244.746094 274.917969 245.054688 276.058594 245.675781 276.757812 C 246.292969 277.414062 247.21875 277.761719 248.460938 277.800781 C 249.699219 277.800781 251.246094 277.761719 253.105469 277.683594 L 253.105469 281.054688 C 249.042969 281.671875 245.984375 281.382812 243.929688 280.183594 C 241.917969 278.984375 240.910156 276.699219 240.910156 273.328125 L 240.910156 255.730469 L 234.8125 255.730469 L 234.8125 252.015625 L 240.910156 252.015625 L 240.910156 245.042969 L 244.746094 243.882812 L 244.746094 252.015625 L 253.105469 252.015625 Z M 269.992188 251.316406 C 274.289062 251.316406 277.753906 252.847656 280.386719 255.902344 C 283.054688 258.925781 284.390625 262.503906 284.390625 266.648438 C 284.390625 267.078125 284.355469 267.675781 284.273438 268.449219 L 258.78125 268.449219 C 259.167969 271.390625 260.410156 273.734375 262.5 275.476562 C 264.628906 277.179688 267.242188 278.035156 270.335938 278.035156 C 272.546875 278.035156 274.441406 277.589844 276.03125 276.699219 C 277.65625 275.765625 278.875 274.570312 279.6875 273.09375 L 283.054688 275.070312 C 281.78125 277.121094 280.035156 278.75 277.828125 279.949219 C 275.625 281.148438 273.109375 281.75 270.28125 281.75 C 265.710938 281.75 261.996094 280.316406 259.132812 277.453125 C 256.265625 274.585938 254.832031 270.949219 254.832031 266.53125 C 254.832031 262.199219 256.246094 258.578125 259.074219 255.671875 C 261.898438 252.769531 265.535156 251.316406 269.992188 251.316406 Z M 269.992188 255.035156 C 266.96875 255.035156 264.433594 255.945312 262.382812 257.765625 C 260.371094 259.542969 259.167969 261.867188 258.78125 264.734375 L 280.445312 264.734375 C 280.058594 261.671875 278.875 259.292969 276.898438 257.589844 C 274.925781 255.886719 272.625 255.035156 269.992188 255.035156 Z M 302.859375 281.75 C 298.484375 281.75 294.84375 280.296875 291.941406 277.394531 C 289.035156 274.453125 287.585938 270.832031 287.585938 266.53125 C 287.585938 262.234375 289.035156 258.632812 291.941406 255.730469 C 294.84375 252.789062 298.484375 251.316406 302.859375 251.316406 C 305.726562 251.316406 308.300781 252.015625 310.582031 253.410156 C 312.867188 254.765625 314.53125 256.601562 315.578125 258.925781 L 312.441406 260.726562 C 311.667969 258.980469 310.40625 257.609375 308.667969 256.601562 C 306.964844 255.554688 305.027344 255.035156 302.859375 255.035156 C 299.644531 255.035156 296.9375 256.160156 294.730469 258.402344 C 292.523438 260.609375 291.417969 263.320312 291.417969 266.53125 C 291.417969 269.75 292.523438 272.476562 294.730469 274.722656 C 296.9375 276.929688 299.644531 278.035156 302.859375 278.035156 C 305.027344 278.035156 306.964844 277.53125 308.667969 276.523438 C 310.371094 275.476562 311.707031 274.082031 312.675781 272.339844 L 315.867188 274.199219 C 314.667969 276.523438 312.90625 278.363281 310.582031 279.71875 C 308.261719 281.074219 305.6875 281.75 302.859375 281.75 Z M 333.796875 251.316406 C 337.324219 251.316406 340.089844 252.402344 342.101562 254.570312 C 344.15625 256.699219 345.179688 259.585938 345.179688 263.222656 L 345.179688 281.054688 L 341.347656 281.054688 L 341.347656 263.222656 C 341.347656 260.628906 340.648438 258.617188 339.257812 257.183594 C 337.902344 255.75 335.96875 255.035156 333.449219 255.035156 C 330.664062 255.035156 328.394531 255.925781 326.652344 257.707031 C 324.914062 259.449219 324.042969 262.15625 324.042969 265.835938 L 324.042969 281.054688 L 320.207031 281.054688 L 320.207031 240.398438 L 324.042969 240.398438 L 324.042969 256.546875 C 326.207031 253.058594 329.460938 251.316406 333.796875 251.316406 Z M 365.019531 251.316406 C 368.542969 251.316406 371.3125 252.402344 373.324219 254.570312 C 375.375 256.699219 376.402344 259.585938 376.402344 263.222656 L 376.402344 281.054688 L 372.566406 281.054688 L 372.566406 263.222656 C 372.566406 260.628906 371.875 258.617188 370.480469 257.183594 C 369.125 255.75 367.1875 255.035156 364.671875 255.035156 C 361.882812 255.035156 359.621094 255.925781 357.875 257.707031 C 356.132812 259.449219 355.261719 262.15625 355.261719 265.835938 L 355.261719 281.054688 L 351.429688 281.054688 L 351.429688 252.015625 L 355.261719 252.015625 L 355.261719 256.546875 C 357.429688 253.058594 360.683594 251.316406 365.019531 251.316406 Z M 406.984375 277.394531 C 404.042969 280.296875 400.441406 281.75 396.183594 281.75 C 391.921875 281.75 388.304688 280.296875 385.320312 277.394531 C 382.382812 274.453125 380.910156 270.832031 380.910156 266.53125 C 380.910156 262.234375 382.382812 258.632812 385.320312 255.730469 C 388.304688 252.789062 391.921875 251.316406 396.183594 251.316406 C 400.441406 251.316406 404.042969 252.789062 406.984375 255.730469 C 409.96875 258.632812 411.453125 262.234375 411.453125 266.53125 C 411.453125 270.832031 409.96875 274.453125 406.984375 277.394531 Z M 388.050781 274.722656 C 390.261719 276.929688 392.96875 278.035156 396.183594 278.035156 C 399.398438 278.035156 402.105469 276.929688 404.3125 274.722656 C 406.519531 272.476562 407.625 269.75 407.625 266.53125 C 407.625 263.320312 406.519531 260.609375 404.3125 258.402344 C 402.105469 256.160156 399.398438 255.035156 396.183594 255.035156 C 392.96875 255.035156 390.261719 256.160156 388.050781 258.402344 C 385.847656 260.609375 384.742188 263.320312 384.742188 266.53125 C 384.742188 269.75 385.847656 272.476562 388.050781 274.722656 Z M 416.710938 281.054688 L 416.710938 238.65625 L 420.539062 238.65625 L 420.539062 281.054688 Z M 451.84375 277.394531 C 448.90625 280.296875 445.300781 281.75 441.042969 281.75 C 436.785156 281.75 433.164062 280.296875 430.183594 277.394531 C 427.242188 274.453125 425.769531 270.832031 425.769531 266.53125 C 425.769531 262.234375 427.242188 258.632812 430.183594 255.730469 C 433.164062 252.789062 436.785156 251.316406 441.042969 251.316406 C 445.300781 251.316406 448.90625 252.789062 451.84375 255.730469 C 454.828125 258.632812 456.316406 262.234375 456.316406 266.53125 C 456.316406 270.832031 454.828125 274.453125 451.84375 277.394531 Z M 432.914062 274.722656 C 435.121094 276.929688 437.832031 278.035156 441.042969 278.035156 C 444.257812 278.035156 446.96875 276.929688 449.175781 274.722656 C 451.382812 272.476562 452.484375 269.75 452.484375 266.53125 C 452.484375 263.320312 451.382812 260.609375 449.175781 258.402344 C 446.96875 256.160156 444.257812 255.035156 441.042969 255.035156 C 437.832031 255.035156 435.121094 256.160156 432.914062 258.402344 C 430.707031 260.609375 429.605469 263.320312 429.605469 266.53125 C 429.605469 269.75 430.707031 272.476562 432.914062 274.722656 Z M 486.542969 252.015625 L 490.375 252.015625 L 490.375 279.890625 C 490.375 284.074219 488.945312 287.363281 486.078125 289.765625 C 483.210938 292.164062 479.785156 293.367188 475.800781 293.367188 C 468.984375 293.367188 464.398438 291.003906 462.035156 286.28125 L 465.402344 284.363281 C 467.144531 287.886719 470.609375 289.648438 475.800781 289.648438 C 479.128906 289.648438 481.742188 288.757812 483.636719 286.976562 C 485.574219 285.234375 486.542969 282.871094 486.542969 279.890625 L 486.542969 275.363281 C 483.871094 279.621094 479.960938 281.75 474.808594 281.75 C 470.667969 281.75 467.128906 280.277344 464.183594 277.335938 C 461.277344 274.394531 459.828125 270.792969 459.828125 266.53125 C 459.828125 262.273438 461.277344 258.675781 464.183594 255.730469 C 467.128906 252.789062 470.667969 251.316406 474.808594 251.316406 C 479.960938 251.316406 483.871094 253.445312 486.542969 257.707031 Z M 466.972656 274.722656 C 469.175781 276.929688 471.890625 278.035156 475.101562 278.035156 C 478.316406 278.035156 481.023438 276.929688 483.234375 274.722656 C 485.4375 272.476562 486.542969 269.75 486.542969 266.53125 C 486.542969 263.320312 485.4375 260.609375 483.234375 258.402344 C 481.023438 256.160156 478.316406 255.035156 475.101562 255.035156 C 471.890625 255.035156 469.175781 256.160156 466.972656 258.402344 C 464.765625 260.609375 463.660156 263.320312 463.660156 266.53125 C 463.660156 269.75 464.765625 272.476562 466.972656 274.722656 Z M 501.222656 245.042969 C 500.679688 245.585938 500.019531 245.859375 499.246094 245.859375 C 498.46875 245.859375 497.8125 245.585938 497.269531 245.042969 C 496.726562 244.503906 496.457031 243.84375 496.457031 243.070312 C 496.457031 242.292969 496.726562 241.636719 497.269531 241.097656 C 497.8125 240.554688 498.46875 240.28125 499.246094 240.28125 C 500.019531 240.28125 500.679688 240.554688 501.222656 241.097656 C 501.761719 241.636719 502.03125 242.292969 502.03125 243.070312 C 502.03125 243.84375 501.761719 244.503906 501.222656 245.042969 Z M 497.328125 281.054688 L 497.328125 252.015625 L 501.164062 252.015625 L 501.164062 281.054688 Z M 521.550781 251.316406 C 525.84375 251.316406 529.308594 252.847656 531.941406 255.902344 C 534.613281 258.925781 535.949219 262.503906 535.949219 266.648438 C 535.949219 267.078125 535.910156 267.675781 535.835938 268.449219 L 510.339844 268.449219 C 510.726562 271.390625 511.964844 273.734375 514.058594 275.476562 C 516.1875 277.179688 518.800781 278.035156 521.898438 278.035156 C 524.101562 278.035156 526 277.589844 527.589844 276.699219 C 529.214844 275.765625 530.433594 274.570312 531.246094 273.09375 L 534.613281 275.070312 C 533.335938 277.121094 531.59375 278.75 529.390625 279.949219 C 527.179688 281.148438 524.664062 281.75 521.839844 281.75 C 517.269531 281.75 513.554688 280.316406 510.6875 277.453125 C 507.824219 274.585938 506.390625 270.949219 506.390625 266.53125 C 506.390625 262.199219 507.804688 258.578125 510.628906 255.671875 C 513.457031 252.769531 517.097656 251.316406 521.550781 251.316406 Z M 521.550781 255.035156 C 518.53125 255.035156 515.992188 255.945312 513.941406 257.765625 C 511.929688 259.542969 510.726562 261.867188 510.339844 264.734375 L 532 264.734375 C 531.613281 261.671875 530.433594 259.292969 528.457031 257.589844 C 526.484375 255.886719 524.183594 255.035156 521.550781 255.035156 Z M 542.769531 259.625 C 542.769531 260.9375 543.355469 261.984375 544.511719 262.757812 C 545.675781 263.535156 547.085938 264.132812 548.753906 264.558594 C 550.417969 264.984375 552.085938 265.46875 553.746094 266.011719 C 555.410156 266.515625 556.824219 267.382812 557.988281 268.625 C 559.148438 269.824219 559.726562 271.410156 559.726562 273.386719 C 559.726562 275.863281 558.742188 277.878906 556.765625 279.425781 C 554.832031 280.972656 552.316406 281.75 549.21875 281.75 C 546.433594 281.75 544.050781 281.132812 542.074219 279.890625 C 540.136719 278.652344 538.785156 277.046875 538.007812 275.070312 L 541.261719 273.152344 C 541.804688 274.664062 542.769531 275.863281 544.164062 276.757812 C 545.597656 277.605469 547.28125 278.035156 549.21875 278.035156 C 551.113281 278.035156 552.703125 277.664062 553.980469 276.929688 C 555.257812 276.15625 555.898438 274.976562 555.898438 273.386719 C 555.898438 272.070312 555.316406 271.023438 554.15625 270.25 C 552.992188 269.476562 551.582031 268.875 549.914062 268.449219 C 548.25 268.023438 546.582031 267.558594 544.921875 267.054688 C 543.257812 266.515625 541.84375 265.640625 540.683594 264.445312 C 539.519531 263.203125 538.941406 261.597656 538.941406 259.625 C 538.941406 257.261719 539.867188 255.285156 541.726562 253.699219 C 543.621094 252.109375 546.003906 251.316406 548.867188 251.316406 C 551.230469 251.316406 553.300781 251.859375 555.082031 252.941406 C 556.863281 253.988281 558.183594 255.421875 559.03125 257.242188 L 555.839844 259.097656 C 554.714844 256.390625 552.390625 255.035156 548.867188 255.035156 C 547.203125 255.035156 545.773438 255.441406 544.570312 256.253906 C 543.371094 257.027344 542.769531 258.148438 542.769531 259.625 Z M 542.769531 259.625 " fill-opacity="1" fill-rule="nonzero"/></svg>