<svg xmlns="http://www.w3.org/2000/svg" width="400" height="120" viewBox="0 0 400 120" fill="none">
<path fill="#2365ff" d="M 122.394531 344.554688 C 125.386719 344.554688 127.816406 346.984375 127.816406 349.976562 C 127.816406 352.972656 125.386719 355.398438 122.394531 355.398438 C 119.398438 355.398438 116.972656 352.972656 116.972656 349.976562 C 116.972656 346.984375 119.398438 344.554688 122.394531 344.554688 Z M 122.394531 344.554688 " fill-opacity="1" fill-rule="nonzero"/>
<path fill="#2365ff" d="M 137.882812 191.953125 L 243.226562 191.953125 L 243.226562 203.574219 L 142.53125 203.574219 C 139.539062 203.574219 137.109375 206 137.109375 208.996094 C 137.109375 211.992188 139.539062 214.417969 142.53125 214.417969 L 185.132812 214.417969 C 187.699219 214.417969 189.78125 216.5 189.78125 219.066406 L 189.78125 226.039062 C 189.78125 230.746094 193.59375 234.558594 198.300781 234.558594 L 243.226562 234.558594 L 243.226562 245.402344 L 182.035156 245.402344 L 182.035156 233.785156 C 182.035156 229.078125 178.222656 225.261719 173.515625 225.261719 L 142.53125 225.261719 C 139.539062 225.261719 137.109375 227.691406 137.109375 230.6875 C 137.109375 233.679688 139.539062 236.109375 142.53125 236.109375 L 171.191406 236.109375 L 171.191406 247.726562 C 171.191406 252.433594 175.003906 256.25 179.710938 256.25 L 243.226562 256.25 L 243.226562 268.640625 L 147.953125 268.640625 C 146.242188 268.640625 144.855469 267.253906 144.855469 265.542969 L 144.855469 262.445312 C 144.855469 260.734375 146.242188 259.347656 147.953125 259.347656 L 154.925781 259.347656 C 157.917969 259.347656 160.347656 256.917969 160.347656 253.925781 C 160.347656 250.929688 157.917969 248.503906 154.925781 248.503906 L 142.53125 248.503906 C 137.828125 248.503906 134.011719 252.316406 134.011719 257.023438 L 134.011719 270.964844 C 134.011719 275.671875 137.828125 279.488281 142.53125 279.488281 L 243.226562 279.488281 L 243.226562 292.65625 C 241.605469 311.945312 235.921875 330.199219 226.960938 346.472656 L 226.960938 295.753906 C 226.960938 292.757812 224.53125 290.332031 221.539062 290.332031 C 218.542969 290.332031 216.117188 292.757812 216.117188 295.753906 L 216.117188 363.125 C 212.761719 367.527344 209.140625 371.726562 205.273438 375.691406 L 205.273438 295.753906 C 205.273438 292.757812 202.84375 290.332031 199.851562 290.332031 C 196.855469 290.332031 194.429688 292.757812 194.429688 295.753906 L 194.429688 385.652344 C 190.960938 388.503906 187.34375 391.191406 183.585938 393.699219 L 183.585938 346.878906 C 183.585938 343.882812 181.15625 341.457031 178.160156 341.457031 C 175.167969 341.457031 172.738281 343.882812 172.738281 346.878906 L 172.738281 400.214844 C 168.976562 402.238281 165.101562 404.097656 161.121094 405.773438 L 161.121094 333.710938 C 161.121094 332 162.507812 330.613281 164.21875 330.613281 L 180.484375 330.613281 C 182.199219 330.613281 183.585938 329.226562 183.585938 327.511719 L 183.585938 295.753906 C 183.585938 292.757812 181.15625 290.332031 178.160156 290.332031 C 175.167969 290.332031 172.738281 292.757812 172.738281 295.753906 L 172.738281 316.667969 C 172.738281 318.382812 171.355469 319.765625 169.640625 319.765625 L 164.21875 319.765625 C 162.507812 319.765625 161.121094 318.382812 161.121094 316.667969 L 161.121094 295.753906 C 161.121094 292.757812 158.695312 290.332031 155.699219 290.332031 C 152.707031 290.332031 150.277344 292.757812 150.277344 295.753906 L 150.277344 409.800781 C 149.101562 410.183594 147.917969 410.550781 146.730469 410.898438 L 137.882812 413.496094 L 137.882812 406.136719 C 137.882812 402.929688 135.285156 400.328125 132.074219 400.328125 L 111.164062 400.328125 C 109.949219 400.328125 108.820312 400.699219 107.886719 401.335938 C 100.78125 397.445312 94.078125 392.953125 87.84375 387.933594 L 133.238281 387.933594 C 136.230469 387.933594 138.660156 385.507812 138.660156 382.511719 C 138.660156 379.515625 136.230469 377.089844 133.238281 377.089844 L 75.882812 377.089844 C 66.46875 367.480469 58.492188 356.519531 52.25 344.554688 L 89.863281 344.554688 C 92.855469 344.554688 95.285156 342.128906 95.285156 339.132812 C 95.285156 336.136719 92.855469 333.710938 89.863281 333.710938 L 47.171875 333.710938 C 42.890625 323.402344 39.839844 312.484375 38.175781 301.160156 L 132.460938 301.160156 C 135.457031 301.160156 137.882812 298.734375 137.882812 295.738281 C 137.882812 292.742188 135.457031 290.316406 132.460938 290.316406 L 37.191406 290.316406 L 37.191406 193.503906 L 37.96875 193.261719 C 40.789062 193.421875 43.628906 193.503906 46.484375 193.503906 C 47.261719 193.503906 48.035156 193.496094 48.808594 193.484375 L 48.808594 274.066406 C 48.808594 277.058594 51.238281 279.488281 54.230469 279.488281 C 57.226562 279.488281 59.652344 277.058594 59.652344 274.066406 L 59.652344 192.933594 C 63.042969 192.636719 66.402344 192.230469 69.722656 191.714844 L 69.722656 274.839844 C 69.722656 277.835938 72.148438 280.261719 75.144531 280.261719 C 78.140625 280.261719 80.566406 277.835938 80.566406 274.839844 L 80.566406 244.628906 C 80.566406 242.917969 81.953125 241.53125 83.664062 241.53125 L 89.085938 241.53125 C 90.796875 241.53125 92.183594 242.917969 92.183594 244.628906 L 92.183594 274.066406 C 92.183594 277.058594 94.613281 279.488281 97.605469 279.488281 C 100.601562 279.488281 103.027344 277.058594 103.027344 274.066406 L 103.027344 239.207031 C 103.027344 234.5 99.214844 230.6875 94.507812 230.6875 L 83.664062 230.6875 C 81.953125 230.6875 80.566406 229.296875 80.566406 227.585938 L 80.566406 189.621094 C 84.769531 188.644531 88.902344 187.496094 92.960938 186.175781 L 92.960938 215.195312 C 92.960938 217.761719 95.039062 219.839844 97.605469 219.839844 C 100.175781 219.839844 102.253906 217.761719 102.253906 215.195312 L 102.253906 182.8125 C 106.214844 181.226562 110.089844 179.480469 113.875 177.578125 L 113.875 274.066406 C 113.875 277.058594 116.300781 279.488281 119.296875 279.488281 C 122.289062 279.488281 124.71875 277.058594 124.71875 274.066406 L 124.71875 171.554688 C 129.269531 168.769531 133.664062 165.753906 137.878906 162.519531 L 137.882812 162.519531 Z M 114.648438 333.710938 C 109.941406 333.710938 106.128906 337.523438 106.128906 342.230469 L 106.128906 352.300781 C 106.128906 354.011719 104.742188 355.398438 103.027344 355.398438 L 85.988281 355.398438 C 82.996094 355.398438 80.566406 357.828125 80.566406 360.824219 C 80.566406 363.816406 82.996094 366.246094 85.988281 366.246094 L 130.140625 366.246094 C 134.84375 366.246094 138.660156 362.429688 138.660156 357.722656 L 138.660156 342.230469 C 138.660156 337.523438 134.84375 333.710938 130.140625 333.710938 Z M 58.878906 310.472656 C 55.882812 310.472656 53.457031 312.898438 53.457031 315.894531 C 53.457031 318.890625 55.882812 321.316406 58.878906 321.316406 L 133.238281 321.316406 C 136.230469 321.316406 138.660156 318.890625 138.660156 315.894531 C 138.660156 312.898438 136.230469 310.472656 133.238281 310.472656 Z M 58.878906 310.472656 " fill-opacity="1" fill-rule="evenodd"/>
<path fill="#2365ff" d="M 243.226562 223.714844 L 223.863281 223.714844 C 221.292969 223.714844 219.214844 221.632812 219.214844 219.066406 C 219.214844 216.5 221.292969 214.417969 223.863281 214.417969 L 243.226562 214.417969 Z M 243.226562 223.714844 " fill-opacity="1" fill-rule="nonzero"/>
<path fill="#2365ff" d="M 205.273438 214.417969 C 207.839844 214.417969 209.917969 216.5 209.917969 219.066406 C 209.917969 221.632812 207.839844 223.714844 205.273438 223.714844 C 202.703125 223.714844 200.625 221.632812 200.625 219.066406 C 200.625 216.5 202.703125 214.417969 205.273438 214.417969 Z M 205.273438 214.417969 " fill-opacity="1" fill-rule="nonzero"/>
<path fill="#ffffff" d="M 329.734375 245.15625 C 329.734375 247.671875 330.992188 249.710938 333.507812 251.273438 C 336.023438 252.746094 339.0625 253.960938 342.617188 254.917969 C 346.175781 255.785156 349.730469 256.824219 353.289062 258.039062 C 356.84375 259.167969 359.882812 261.164062 362.398438 264.027344 C 364.914062 266.800781 366.171875 270.402344 366.171875 274.828125 C 366.171875 280.726562 363.871094 285.453125 359.273438 289.011719 C 354.761719 292.570312 348.949219 294.347656 341.835938 294.347656 C 335.503906 294.347656 330.082031 292.960938 325.570312 290.183594 C 321.058594 287.40625 317.851562 283.71875 315.941406 279.121094 L 325.703125 273.527344 C 326.742188 276.648438 328.695312 279.121094 331.558594 280.945312 C 334.421875 282.765625 337.847656 283.675781 341.835938 283.675781 C 345.566406 283.675781 348.648438 282.980469 351.078125 281.59375 C 353.503906 280.121094 354.71875 277.863281 354.71875 274.828125 C 354.71875 272.3125 353.460938 270.316406 350.945312 268.839844 C 348.429688 267.277344 345.394531 266.0625 341.835938 265.195312 C 338.28125 264.242188 334.722656 263.15625 331.167969 261.945312 C 327.609375 260.730469 324.574219 258.734375 322.058594 255.957031 C 319.542969 253.179688 318.285156 249.625 318.285156 245.285156 C 318.285156 239.648438 320.453125 235.003906 324.789062 231.363281 C 329.214844 227.71875 334.722656 225.894531 341.316406 225.894531 C 346.609375 225.894531 351.292969 227.109375 355.371094 229.539062 C 359.535156 231.882812 362.65625 235.179688 364.738281 239.429688 L 355.242188 244.765625 C 352.898438 239.214844 348.257812 236.4375 341.316406 236.4375 C 338.105469 236.4375 335.375 237.21875 333.117188 238.777344 C 330.863281 240.253906 329.734375 242.378906 329.734375 245.15625 Z M 380.113281 215.746094 C 377.941406 215.746094 376.121094 215.007812 374.644531 213.53125 C 373.171875 212.058594 372.433594 210.277344 372.433594 208.195312 C 372.433594 206.113281 373.171875 204.335938 374.644531 202.863281 C 376.121094 201.300781 377.941406 200.519531 380.113281 200.519531 C 382.195312 200.519531 383.972656 201.300781 385.445312 202.863281 C 386.921875 204.335938 387.660156 206.113281 387.660156 208.195312 C 387.660156 210.277344 386.921875 212.058594 385.445312 213.53125 C 383.972656 215.007812 382.195312 215.746094 380.113281 215.746094 Z M 374.386719 292.65625 L 374.386719 227.585938 L 385.707031 227.585938 L 385.707031 292.65625 Z M 429.003906 294.347656 C 419.199219 294.347656 411.046875 291.09375 404.539062 284.585938 C 398.035156 277.992188 394.78125 269.839844 394.78125 260.121094 C 394.78125 250.40625 398.035156 242.292969 404.539062 235.785156 C 411.046875 229.191406 419.199219 225.894531 429.003906 225.894531 C 435.421875 225.894531 441.191406 227.457031 446.3125 230.582031 C 451.429688 233.617188 455.246094 237.738281 457.761719 242.945312 L 448.261719 248.410156 C 446.613281 244.9375 444.054688 242.164062 440.585938 240.082031 C 437.203125 238 433.339844 236.957031 429.003906 236.957031 C 422.496094 236.957031 417.03125 239.167969 412.609375 243.59375 C 408.269531 248.019531 406.101562 253.527344 406.101562 260.121094 C 406.101562 266.628906 408.269531 272.09375 412.609375 276.519531 C 417.03125 280.945312 422.496094 283.15625 429.003906 283.15625 C 433.339844 283.15625 437.246094 282.15625 440.714844 280.164062 C 444.183594 278.082031 446.832031 275.304688 448.652344 271.832031 L 458.28125 277.429688 C 455.507812 282.546875 451.515625 286.667969 446.3125 289.792969 C 441.105469 292.828125 435.335938 294.347656 429.003906 294.347656 Z M 497.304688 225.894531 C 504.941406 225.894531 511.058594 228.324219 515.65625 233.183594 C 520.253906 237.953125 522.550781 244.460938 522.550781 252.703125 L 522.550781 292.65625 L 511.230469 292.65625 L 511.230469 253.355469 C 511.230469 248.0625 509.796875 243.984375 506.9375 241.121094 C 504.074219 238.171875 500.125 236.695312 495.09375 236.695312 C 489.457031 236.695312 484.902344 238.476562 481.429688 242.03125 C 477.960938 245.503906 476.226562 250.882812 476.226562 258.167969 L 476.226562 292.65625 L 464.90625 292.65625 L 464.90625 201.558594 L 476.226562 201.558594 L 476.226562 236.957031 C 480.824219 229.582031 487.851562 225.894531 497.304688 225.894531 Z M 541.738281 265.328125 C 542.867188 271.140625 545.511719 275.652344 549.675781 278.859375 C 553.925781 282.070312 559.132812 283.675781 565.292969 283.675781 C 573.878906 283.675781 580.125 280.507812 584.03125 274.175781 L 593.660156 279.640625 C 587.328125 289.445312 577.785156 294.347656 565.03125 294.347656 C 554.707031 294.347656 546.292969 291.136719 539.785156 284.71875 C 533.367188 278.210938 530.15625 270.011719 530.15625 260.121094 C 530.15625 250.316406 533.324219 242.164062 539.65625 235.65625 C 545.988281 229.148438 554.1875 225.894531 564.25 225.894531 C 573.792969 225.894531 581.558594 229.277344 587.542969 236.046875 C 593.617188 242.726562 596.652344 250.796875 596.652344 260.25 C 596.652344 261.898438 596.523438 263.59375 596.261719 265.328125 Z M 564.25 236.566406 C 558.179688 236.566406 553.148438 238.300781 549.15625 241.773438 C 545.164062 245.15625 542.691406 249.710938 541.738281 255.4375 L 585.203125 255.4375 C 584.246094 249.277344 581.816406 244.59375 577.914062 241.382812 C 574.011719 238.171875 569.457031 236.566406 564.25 236.566406 Z M 616.433594 238.519531 C 620.164062 230.449219 626.929688 226.417969 636.734375 226.417969 L 636.734375 238.257812 C 631.179688 238 626.410156 239.472656 622.417969 242.683594 C 618.429688 245.894531 616.433594 251.054688 616.433594 258.167969 L 616.433594 292.65625 L 605.113281 292.65625 L 605.113281 227.585938 L 616.433594 227.585938 Z M 675.65625 225.894531 C 683.289062 225.894531 689.40625 228.324219 694.003906 233.183594 C 698.601562 237.953125 700.902344 244.460938 700.902344 252.703125 L 700.902344 292.65625 L 689.582031 292.65625 L 689.582031 253.355469 C 689.582031 248.0625 688.148438 243.984375 685.285156 241.121094 C 682.421875 238.171875 678.476562 236.695312 673.445312 236.695312 C 667.804688 236.695312 663.25 238.476562 659.78125 242.03125 C 656.3125 245.503906 654.574219 250.882812 654.574219 258.167969 L 654.574219 292.65625 L 643.253906 292.65625 L 643.253906 201.558594 L 654.574219 201.558594 L 654.574219 236.957031 C 659.175781 229.582031 666.199219 225.894531 675.65625 225.894531 Z M 766.023438 227.585938 L 777.34375 227.585938 L 777.34375 292.65625 L 766.023438 292.65625 L 766.023438 281.464844 C 760.386719 290.054688 752.1875 294.347656 741.429688 294.347656 C 732.320312 294.347656 724.554688 291.050781 718.136719 284.457031 C 711.71875 277.777344 708.507812 269.664062 708.507812 260.121094 C 708.507812 250.578125 711.71875 242.507812 718.136719 235.917969 C 724.554688 229.234375 732.320312 225.894531 741.429688 225.894531 C 752.1875 225.894531 760.386719 230.191406 766.023438 238.777344 Z M 742.859375 283.414062 C 749.453125 283.414062 754.964844 281.203125 759.386719 276.777344 C 763.8125 272.269531 766.023438 266.714844 766.023438 260.121094 C 766.023438 253.527344 763.8125 248.019531 759.386719 243.59375 C 754.964844 239.082031 749.453125 236.828125 742.859375 236.828125 C 736.355469 236.828125 730.890625 239.082031 726.464844 243.59375 C 722.039062 248.019531 719.828125 253.527344 719.828125 260.121094 C 719.828125 266.714844 722.039062 272.269531 726.464844 276.777344 C 730.890625 281.203125 736.355469 283.414062 742.859375 283.414062 Z M 835.488281 227.585938 L 847.71875 227.585938 L 821.695312 292.65625 L 808.421875 292.65625 L 782.394531 227.585938 L 794.628906 227.585938 L 815.058594 280.554688 Z M 858.136719 265.328125 C 859.261719 271.140625 861.910156 275.652344 866.074219 278.859375 C 870.324219 282.070312 875.527344 283.675781 881.6875 283.675781 C 890.277344 283.675781 896.523438 280.507812 900.425781 274.175781 L 910.054688 279.640625 C 903.722656 289.445312 894.179688 294.347656 881.429688 294.347656 C 871.105469 294.347656 862.691406 291.136719 856.183594 284.71875 C 849.761719 278.210938 846.554688 270.011719 846.554688 260.121094 C 846.554688 250.316406 849.71875 242.164062 856.054688 235.65625 C 862.386719 229.148438 870.582031 225.894531 880.648438 225.894531 C 890.191406 225.894531 897.953125 229.277344 903.941406 236.046875 C 910.011719 242.726562 913.046875 250.796875 913.046875 260.25 C 913.046875 261.898438 912.917969 263.59375 912.660156 265.328125 Z M 880.648438 236.566406 C 874.574219 236.566406 869.542969 238.300781 865.550781 241.773438 C 861.5625 245.15625 859.089844 249.710938 858.136719 255.4375 L 901.597656 255.4375 C 900.644531 249.277344 898.214844 244.59375 894.308594 241.382812 C 890.40625 238.171875 885.851562 236.566406 880.648438 236.566406 Z M 953.910156 225.894531 C 961.542969 225.894531 967.660156 228.324219 972.257812 233.183594 C 976.855469 237.953125 979.15625 244.460938 979.15625 252.703125 L 979.15625 292.65625 L 967.832031 292.65625 L 967.832031 253.355469 C 967.832031 248.0625 966.402344 243.984375 963.539062 241.121094 C 960.675781 238.171875 956.730469 236.695312 951.699219 236.695312 C 946.058594 236.695312 941.503906 238.476562 938.035156 242.03125 C 934.566406 245.503906 932.828125 250.882812 932.828125 258.167969 L 932.828125 292.65625 L 921.507812 292.65625 L 921.507812 227.585938 L 932.828125 227.585938 L 932.828125 236.957031 C 937.425781 229.582031 944.453125 225.894531 953.910156 225.894531 Z M 953.910156 225.894531 " fill-opacity="1" fill-rule="nonzero"/>
<path fill="#ffffff" d="M 337.335938 340.992188 L 326.183594 340.992188 L 326.183594 364.464844 C 326.183594 366.582031 326.59375 368.105469 327.421875 369.035156 C 328.246094 369.910156 329.484375 370.375 331.140625 370.425781 C 332.792969 370.425781 334.855469 370.375 337.335938 370.273438 L 337.335938 374.765625 C 331.914062 375.589844 327.835938 375.203125 325.097656 373.605469 C 322.414062 372.003906 321.070312 368.957031 321.070312 364.464844 L 321.070312 340.992188 L 312.9375 340.992188 L 312.9375 336.035156 L 321.070312 336.035156 L 321.070312 326.738281 L 326.183594 325.191406 L 326.183594 336.035156 L 337.335938 336.035156 Z M 359.855469 335.105469 C 365.585938 335.105469 370.207031 337.144531 373.71875 341.222656 C 377.28125 345.253906 379.0625 350.027344 379.0625 355.554688 C 379.0625 356.125 379.011719 356.921875 378.90625 357.957031 L 344.90625 357.957031 C 345.421875 361.878906 347.074219 365.003906 349.863281 367.328125 C 352.703125 369.601562 356.1875 370.738281 360.316406 370.738281 C 363.261719 370.738281 365.792969 370.144531 367.910156 368.957031 C 370.078125 367.714844 371.703125 366.117188 372.789062 364.152344 L 377.28125 366.785156 C 375.578125 369.523438 373.253906 371.695312 370.308594 373.292969 C 367.367188 374.894531 364.011719 375.695312 360.242188 375.695312 C 354.148438 375.695312 349.191406 373.785156 345.371094 369.964844 C 341.550781 366.140625 339.636719 361.289062 339.636719 355.398438 C 339.636719 349.617188 341.523438 344.789062 345.292969 340.914062 C 349.0625 337.042969 353.914062 335.105469 359.855469 335.105469 Z M 359.855469 340.0625 C 355.824219 340.0625 352.445312 341.277344 349.707031 343.703125 C 347.023438 346.078125 345.421875 349.175781 344.90625 353 L 373.796875 353 C 373.28125 348.917969 371.703125 345.742188 369.070312 343.472656 C 366.4375 341.199219 363.367188 340.0625 359.855469 340.0625 Z M 403.695312 375.695312 C 397.859375 375.695312 393.003906 373.757812 389.132812 369.886719 C 385.257812 365.960938 383.324219 361.132812 383.324219 355.398438 C 383.324219 349.667969 385.257812 344.863281 389.132812 340.992188 C 393.003906 337.066406 397.859375 335.105469 403.695312 335.105469 C 407.515625 335.105469 410.949219 336.035156 413.996094 337.894531 C 417.042969 339.703125 419.261719 342.152344 420.65625 345.253906 L 416.472656 347.652344 C 415.441406 345.328125 413.761719 343.496094 411.441406 342.152344 C 409.167969 340.757812 406.585938 340.0625 403.695312 340.0625 C 399.40625 340.0625 395.792969 341.5625 392.851562 344.554688 C 389.90625 347.5 388.433594 351.113281 388.433594 355.398438 C 388.433594 359.6875 389.90625 363.328125 392.851562 366.320312 C 395.792969 369.265625 399.40625 370.738281 403.695312 370.738281 C 406.585938 370.738281 409.167969 370.066406 411.441406 368.722656 C 413.710938 367.328125 415.492188 365.46875 416.785156 363.144531 L 421.042969 365.625 C 419.441406 368.722656 417.09375 371.175781 413.996094 372.984375 C 410.898438 374.792969 407.464844 375.695312 403.695312 375.695312 Z M 444.957031 335.105469 C 449.660156 335.105469 453.351562 336.550781 456.035156 339.441406 C 458.773438 342.28125 460.140625 346.132812 460.140625 350.984375 L 460.140625 374.765625 L 455.027344 374.765625 L 455.027344 350.984375 C 455.027344 347.523438 454.097656 344.839844 452.238281 342.929688 C 450.433594 341.019531 447.851562 340.0625 444.492188 340.0625 C 440.777344 340.0625 437.753906 341.25 435.429688 343.625 C 433.109375 345.949219 431.945312 349.5625 431.945312 354.46875 L 431.945312 374.765625 L 426.832031 374.765625 L 426.832031 320.542969 L 431.945312 320.542969 L 431.945312 342.078125 C 434.835938 337.429688 439.175781 335.105469 444.957031 335.105469 Z M 486.601562 335.105469 C 491.300781 335.105469 494.992188 336.550781 497.675781 339.441406 C 500.414062 342.28125 501.78125 346.132812 501.78125 350.984375 L 501.78125 374.765625 L 496.667969 374.765625 L 496.667969 350.984375 C 496.667969 347.523438 495.742188 344.839844 493.882812 342.929688 C 492.074219 341.019531 489.492188 340.0625 486.136719 340.0625 C 482.417969 340.0625 479.398438 341.25 477.074219 343.625 C 474.75 345.949219 473.585938 349.5625 473.585938 354.46875 L 473.585938 374.765625 L 468.476562 374.765625 L 468.476562 336.035156 L 473.585938 336.035156 L 473.585938 342.078125 C 476.480469 337.429688 480.816406 335.105469 486.601562 335.105469 Z M 542.570312 369.886719 C 538.648438 373.757812 533.847656 375.695312 528.164062 375.695312 C 522.484375 375.695312 517.65625 373.757812 513.679688 369.886719 C 509.757812 365.960938 507.792969 361.132812 507.792969 355.398438 C 507.792969 349.667969 509.757812 344.863281 513.679688 340.992188 C 517.65625 337.066406 522.484375 335.105469 528.164062 335.105469 C 533.847656 335.105469 538.648438 337.066406 542.570312 340.992188 C 546.550781 344.863281 548.535156 349.667969 548.535156 355.398438 C 548.535156 361.132812 546.550781 365.960938 542.570312 369.886719 Z M 517.320312 366.320312 C 520.265625 369.265625 523.878906 370.738281 528.164062 370.738281 C 532.453125 370.738281 536.066406 369.265625 539.007812 366.320312 C 541.953125 363.328125 543.425781 359.6875 543.425781 355.398438 C 543.425781 351.113281 541.953125 347.5 539.007812 344.554688 C 536.066406 341.5625 532.453125 340.0625 528.164062 340.0625 C 523.878906 340.0625 520.265625 341.5625 517.320312 344.554688 C 514.378906 347.5 512.90625 351.113281 512.90625 355.398438 C 512.90625 359.6875 514.378906 363.328125 517.320312 366.320312 Z M 555.542969 374.765625 L 555.542969 318.21875 L 560.652344 318.21875 L 560.652344 374.765625 Z M 602.40625 369.886719 C 598.484375 373.757812 593.679688 375.695312 588 375.695312 C 582.320312 375.695312 577.492188 373.757812 573.515625 369.886719 C 569.59375 365.960938 567.628906 361.132812 567.628906 355.398438 C 567.628906 349.667969 569.59375 344.863281 573.515625 340.992188 C 577.492188 337.066406 582.320312 335.105469 588 335.105469 C 593.679688 335.105469 598.484375 337.066406 602.40625 340.992188 C 606.382812 344.863281 608.371094 349.667969 608.371094 355.398438 C 608.371094 361.132812 606.382812 365.960938 602.40625 369.886719 Z M 577.15625 366.320312 C 580.101562 369.265625 583.714844 370.738281 588 370.738281 C 592.285156 370.738281 595.902344 369.265625 598.84375 366.320312 C 601.789062 363.328125 603.257812 359.6875 603.257812 355.398438 C 603.257812 351.113281 601.789062 347.5 598.84375 344.554688 C 595.902344 341.5625 592.285156 340.0625 588 340.0625 C 583.714844 340.0625 580.101562 341.5625 577.15625 344.554688 C 574.214844 347.5 572.742188 351.113281 572.742188 355.398438 C 572.742188 359.6875 574.214844 363.328125 577.15625 366.320312 Z M 648.683594 336.035156 L 653.796875 336.035156 L 653.796875 373.214844 C 653.796875 378.792969 651.886719 383.183594 648.0625 386.386719 C 644.242188 389.585938 639.671875 391.1875 634.355469 391.1875 C 625.265625 391.1875 619.148438 388.039062 615.996094 381.738281 L 620.488281 379.179688 C 622.8125 383.878906 627.433594 386.230469 634.355469 386.230469 C 638.796875 386.230469 642.28125 385.042969 644.808594 382.667969 C 647.394531 380.34375 648.683594 377.191406 648.683594 373.214844 L 648.683594 367.175781 C 645.121094 372.855469 639.90625 375.695312 633.035156 375.695312 C 627.511719 375.695312 622.789062 373.730469 618.863281 369.808594 C 614.988281 365.882812 613.054688 361.082031 613.054688 355.398438 C 613.054688 349.71875 614.988281 344.917969 618.863281 340.992188 C 622.789062 337.066406 627.511719 335.105469 633.035156 335.105469 C 639.90625 335.105469 645.121094 337.945312 648.683594 343.625 Z M 622.582031 366.320312 C 625.523438 369.265625 629.140625 370.738281 633.425781 370.738281 C 637.710938 370.738281 641.324219 369.265625 644.269531 366.320312 C 647.210938 363.328125 648.683594 359.6875 648.683594 355.398438 C 648.683594 351.113281 647.210938 347.5 644.269531 344.554688 C 641.324219 341.5625 637.710938 340.0625 633.425781 340.0625 C 629.140625 340.0625 625.523438 341.5625 622.582031 344.554688 C 619.636719 347.5 618.164062 351.113281 618.164062 355.398438 C 618.164062 359.6875 619.636719 363.328125 622.582031 366.320312 Z M 668.261719 326.738281 C 667.539062 327.460938 666.660156 327.824219 665.628906 327.824219 C 664.59375 327.824219 663.714844 327.460938 662.992188 326.738281 C 662.269531 326.015625 661.910156 325.136719 661.910156 324.105469 C 661.910156 323.070312 662.269531 322.195312 662.992188 321.472656 C 663.714844 320.75 664.59375 320.386719 665.628906 320.386719 C 666.660156 320.386719 667.539062 320.75 668.261719 321.472656 C 668.984375 322.195312 669.34375 323.070312 669.34375 324.105469 C 669.34375 325.136719 668.984375 326.015625 668.261719 326.738281 Z M 663.070312 374.765625 L 663.070312 336.035156 L 668.183594 336.035156 L 668.183594 374.765625 Z M 695.375 335.105469 C 701.105469 335.105469 705.726562 337.144531 709.238281 341.222656 C 712.800781 345.253906 714.582031 350.027344 714.582031 355.554688 C 714.582031 356.125 714.53125 356.921875 714.429688 357.957031 L 680.425781 357.957031 C 680.941406 361.878906 682.59375 365.003906 685.382812 367.328125 C 688.222656 369.601562 691.707031 370.738281 695.839844 370.738281 C 698.78125 370.738281 701.3125 370.144531 703.429688 368.957031 C 705.597656 367.714844 707.226562 366.117188 708.308594 364.152344 L 712.800781 366.785156 C 711.097656 369.523438 708.773438 371.695312 705.832031 373.292969 C 702.886719 374.894531 699.53125 375.695312 695.761719 375.695312 C 689.667969 375.695312 684.710938 373.785156 680.890625 369.964844 C 677.070312 366.140625 675.15625 361.289062 675.15625 355.398438 C 675.15625 349.617188 677.042969 344.789062 680.8125 340.914062 C 684.582031 337.042969 689.4375 335.105469 695.375 335.105469 Z M 695.375 340.0625 C 691.347656 340.0625 687.964844 341.277344 685.226562 343.703125 C 682.542969 346.078125 680.941406 349.175781 680.425781 353 L 709.316406 353 C 708.800781 348.917969 707.226562 345.742188 704.589844 343.472656 C 701.957031 341.199219 698.886719 340.0625 695.375 340.0625 Z M 723.679688 346.183594 C 723.679688 347.9375 724.457031 349.332031 726.003906 350.363281 C 727.554688 351.398438 729.4375 352.199219 731.660156 352.765625 C 733.878906 353.335938 736.101562 353.980469 738.320312 354.703125 C 740.539062 355.375 742.425781 356.535156 743.976562 358.1875 C 745.523438 359.789062 746.296875 361.90625 746.296875 364.539062 C 746.296875 367.84375 744.980469 370.53125 742.347656 372.597656 C 739.765625 374.660156 736.410156 375.695312 732.277344 375.695312 C 728.5625 375.695312 725.386719 374.871094 722.75 373.214844 C 720.167969 371.5625 718.363281 369.421875 717.328125 366.785156 L 721.667969 364.230469 C 722.390625 366.246094 723.679688 367.84375 725.539062 369.035156 C 727.449219 370.167969 729.695312 370.738281 732.277344 370.738281 C 734.808594 370.738281 736.925781 370.246094 738.628906 369.265625 C 740.335938 368.234375 741.1875 366.660156 741.1875 364.539062 C 741.1875 362.785156 740.410156 361.390625 738.863281 360.359375 C 737.3125 359.324219 735.429688 358.523438 733.207031 357.957031 C 730.988281 357.386719 728.765625 356.769531 726.546875 356.097656 C 724.328125 355.375 722.441406 354.210938 720.894531 352.613281 C 719.34375 350.957031 718.570312 348.816406 718.570312 346.183594 C 718.570312 343.03125 719.808594 340.398438 722.285156 338.28125 C 724.816406 336.164062 727.992188 335.105469 731.8125 335.105469 C 734.964844 335.105469 737.726562 335.828125 740.101562 337.273438 C 742.476562 338.667969 744.234375 340.578125 745.367188 343.007812 L 741.109375 345.484375 C 739.609375 341.871094 736.511719 340.0625 731.8125 340.0625 C 729.59375 340.0625 727.683594 340.605469 726.082031 341.6875 C 724.480469 342.722656 723.679688 344.21875 723.679688 346.183594 Z M 723.679688 346.183594 " fill-opacity="1" fill-rule="nonzero"/>
</svg>
